<?xml version="1.0" encoding="UTF-8" standalone="no"?>
<!DOCTYPE svg PUBLIC "-//W3C//DTD SVG 1.1//EN" "http://www.w3.org/Graphics/SVG/1.1/DTD/svg11.dtd">
<svg xmlns="http://www.w3.org/2000/svg" version="1.1" viewBox="0.00 0.00 126.00 207.00">
<g stroke-width="2.00" fill="none" stroke-linecap="butt">
<path stroke="#9f9636" vector-effect="non-scaling-stroke" d="
  M 95.46 23.27
  Q 91.76 24.45 88.49 26.54
  Q 86.66 27.71 85.20 27.95
  C 81.84 28.52 79.27 27.49 76.82 30.68
  Q 76.35 31.30 75.67 30.94
  C 70.41 28.15 65.18 25.51 59.60 24.12
  C 55.24 23.04 52.22 20.78 49.23 17.69
  A 0.77 0.77 0.0 0 1 49.63 16.40
  C 53.50 15.61 58.16 16.05 62.17 16.02
  C 67.08 15.98 71.51 14.01 76.46 13.91
  Q 81.98 13.80 87.62 13.74
  A 0.84 0.82 -61.4 0 0 88.08 13.60
  Q 89.21 12.87 88.07 11.86
  A 1.08 1.07 69.1 0 0 87.49 11.60
  Q 80.29 10.79 73.01 9.58
  Q 67.45 8.66 63.37 8.87
  Q 58.49 9.12 53.74 9.76
  C 51.67 10.04 50.01 11.23 47.95 11.41
  Q 45.42 11.63 43.73 10.38"
/>
<path stroke="#9f9636" vector-effect="non-scaling-stroke" d="
  M 52.05 22.47
  Q 49.95 20.53 48.21 18.62
  C 46.39 16.63 43.83 15.85 41.58 14.59
  C 38.97 13.14 36.17 15.28 34.98 17.52
  C 33.28 20.73 30.95 23.43 29.97 27.00
  Q 27.84 34.76 27.51 42.52
  C 27.28 47.92 29.73 53.24 32.33 57.90
  Q 35.25 63.11 41.36 65.84
  Q 56.34 72.52 69.81 78.24
  A 1.94 1.94 0.0 0 0 72.31 77.31
  C 74.49 72.81 72.42 68.57 72.20 63.98
  Q 71.67 53.34 70.14 46.89
  Q 68.41 39.65 63.91 34.46
  Q 59.40 29.27 52.05 22.47"
/>
<path stroke="#9f9636" vector-effect="non-scaling-stroke" d="
  M 40.57 23.30
  A 0.51 0.50 28.2 0 0 39.77 23.54
  C 38.74 26.81 39.86 30.71 41.19 33.75
  Q 48.19 49.72 57.34 61.61
  C 59.16 63.99 62.13 67.23 65.22 67.83
  A 0.84 0.83 82.6 0 0 66.13 66.64
  C 63.23 60.71 60.30 54.57 57.03 48.89
  Q 51.72 39.67 46.24 30.00
  Q 44.05 26.14 40.57 23.30"
/>
</g>
<path fill="#495e57" d="
  M 95.46 23.27
  Q 91.76 24.45 88.49 26.54
  Q 86.66 27.71 85.20 27.95
  C 81.84 28.52 79.27 27.49 76.82 30.68
  Q 76.35 31.30 75.67 30.94
  C 70.41 28.15 65.18 25.51 59.60 24.12
  C 55.24 23.04 52.22 20.78 49.23 17.69
  A 0.77 0.77 0.0 0 1 49.63 16.40
  C 53.50 15.61 58.16 16.05 62.17 16.02
  C 67.08 15.98 71.51 14.01 76.46 13.91
  Q 81.98 13.80 87.62 13.74
  A 0.84 0.82 -61.4 0 0 88.08 13.60
  Q 89.21 12.87 88.07 11.86
  A 1.08 1.07 69.1 0 0 87.49 11.60
  Q 80.29 10.79 73.01 9.58
  Q 67.45 8.66 63.37 8.87
  Q 58.49 9.12 53.74 9.76
  C 51.67 10.04 50.01 11.23 47.95 11.41
  Q 45.42 11.63 43.73 10.38
  C 45.27 8.86 46.57 7.68 48.67 6.89
  Q 53.00 5.27 57.04 3.52
  C 63.88 0.58 72.31 0.88 79.43 1.86
  C 82.52 2.29 86.14 3.86 88.89 5.31
  C 91.81 6.85 94.88 5.60 97.87 7.11
  C 100.61 8.50 103.74 9.66 104.85 13.19
  C 106.69 19.09 100.27 21.11 95.46 23.27
  Z"
/>
<path fill="#f4ce14" d="
  M 95.46 23.27
  Q 91.60 25.37 87.76 27.45
  Q 86.13 28.32 84.69 28.45
  C 83.15 28.59 81.55 28.27 80.13 29.07
  Q 78.57 29.95 77.30 31.57
  Q 76.99 31.96 77.39 32.26
  Q 81.70 35.44 86.06 38.10
  Q 89.62 40.27 92.11 42.92
  Q 97.63 48.80 103.02 54.21
  Q 105.25 56.45 107.45 59.86
  Q 109.44 62.95 111.57 66.02
  Q 116.06 72.49 118.67 81.99
  Q 120.70 89.41 122.06 97.21
  Q 122.67 100.69 123.41 103.89
  Q 124.67 109.37 124.17 115.10
  C 123.97 117.34 122.56 118.99 122.42 121.21
  Q 122.12 126.24 121.92 131.28
  C 121.83 133.71 120.58 135.40 120.32 137.67
  Q 119.31 146.52 116.06 155.09
  C 115.40 156.82 115.16 158.43 114.86 160.22
  Q 114.72 161.05 114.14 161.65
  Q 112.55 163.33 112.47 165.44
  C 112.29 170.06 107.36 173.83 107.46 178.45
  A 3.14 3.11 66.0 0 1 106.62 180.66
  L 103.09 184.47
  A 1.56 1.55 62.9 0 0 102.69 185.72
  Q 103.18 189.55 100.90 192.40
  Q 100.55 192.84 100.52 193.40
  Q 100.38 196.00 100.57 198.83
  C 100.99 205.10 93.15 207.35 88.82 204.60
  C 87.10 203.51 85.92 201.95 84.00 201.04
  Q 81.44 199.81 79.11 198.00
  C 76.10 195.66 72.50 194.24 69.08 192.58
  Q 66.92 191.53 64.63 190.97
  C 62.49 190.44 60.64 189.35 58.47 188.64
  Q 51.22 186.25 49.14 184.36
  C 45.88 181.40 42.56 178.32 38.64 176.14
  Q 34.47 173.84 32.01 168.93
  C 31.11 167.13 29.24 166.85 28.47 165.37
  C 26.41 161.41 22.85 158.69 20.41 154.77
  C 18.03 150.95 15.51 146.97 12.69 143.42
  Q 10.47 140.62 8.80 136.23
  C 8.14 134.52 8.20 132.74 7.96 130.94
  C 7.65 128.56 5.92 127.15 6.05 124.63
  Q 6.26 120.38 4.08 116.92
  C 2.83 114.93 3.57 113.11 3.46 110.97
  Q 3.19 105.75 3.25 100.59
  C 3.27 98.72 2.57 97.21 1.79 95.59
  Q 1.51 95.01 1.84 94.47
  C 2.63 93.19 3.28 91.87 3.26 90.33
  Q 3.21 85.71 3.31 81.08
  A 8.27 8.20 -30.9 0 1 4.24 77.45
  C 6.84 72.46 8.59 67.28 10.80 62.21
  Q 16.14 49.98 21.42 37.27
  A 14.96 14.74 -30.8 0 0 22.47 33.25
  C 23.13 27.72 24.23 20.16 28.56 16.31
  Q 30.19 14.86 34.69 13.61
  Q 39.41 12.30 43.73 10.38
  Q 45.42 11.63 47.95 11.41
  C 50.01 11.23 51.67 10.04 53.74 9.76
  Q 58.49 9.12 63.37 8.87
  Q 67.45 8.66 73.01 9.58
  Q 80.29 10.79 87.49 11.60
  A 1.08 1.07 69.1 0 1 88.07 11.86
  Q 89.21 12.87 88.08 13.60
  A 0.84 0.82 -61.4 0 1 87.62 13.74
  Q 81.98 13.80 76.46 13.91
  C 71.51 14.01 67.08 15.98 62.17 16.02
  C 58.16 16.05 53.50 15.61 49.63 16.40
  A 0.77 0.77 0.0 0 0 49.23 17.69
  C 52.22 20.78 55.24 23.04 59.60 24.12
  C 65.18 25.51 70.41 28.15 75.67 30.94
  Q 76.35 31.30 76.82 30.68
  C 79.27 27.49 81.84 28.52 85.20 27.95
  Q 86.66 27.71 88.49 26.54
  Q 91.76 24.45 95.46 23.27
  Z
  M 52.05 22.47
  Q 49.95 20.53 48.21 18.62
  C 46.39 16.63 43.83 15.85 41.58 14.59
  C 38.97 13.14 36.17 15.28 34.98 17.52
  C 33.28 20.73 30.95 23.43 29.97 27.00
  Q 27.84 34.76 27.51 42.52
  C 27.28 47.92 29.73 53.24 32.33 57.90
  Q 35.25 63.11 41.36 65.84
  Q 56.34 72.52 69.81 78.24
  A 1.94 1.94 0.0 0 0 72.31 77.31
  C 74.49 72.81 72.42 68.57 72.20 63.98
  Q 71.67 53.34 70.14 46.89
  Q 68.41 39.65 63.91 34.46
  Q 59.40 29.27 52.05 22.47
  Z"
/>
<path fill="#495e57" d="
  M 52.05 22.47
  Q 59.40 29.27 63.91 34.46
  Q 68.41 39.65 70.14 46.89
  Q 71.67 53.34 72.20 63.98
  C 72.42 68.57 74.49 72.81 72.31 77.31
  A 1.94 1.94 0.0 0 1 69.81 78.24
  Q 56.34 72.52 41.36 65.84
  Q 35.25 63.11 32.33 57.90
  C 29.73 53.24 27.28 47.92 27.51 42.52
  Q 27.84 34.76 29.97 27.00
  C 30.95 23.43 33.28 20.73 34.98 17.52
  C 36.17 15.28 38.97 13.14 41.58 14.59
  C 43.83 15.85 46.39 16.63 48.21 18.62
  Q 49.95 20.53 52.05 22.47
  Z
  M 40.57 23.30
  A 0.51 0.50 28.2 0 0 39.77 23.54
  C 38.74 26.81 39.86 30.71 41.19 33.75
  Q 48.19 49.72 57.34 61.61
  C 59.16 63.99 62.13 67.23 65.22 67.83
  A 0.84 0.83 82.6 0 0 66.13 66.64
  C 63.23 60.71 60.30 54.57 57.03 48.89
  Q 51.72 39.67 46.24 30.00
  Q 44.05 26.14 40.57 23.30
  Z"
/>
<path fill="#f4ce14" d="
  M 40.57 23.30
  Q 44.05 26.14 46.24 30.00
  Q 51.72 39.67 57.03 48.89
  C 60.30 54.57 63.23 60.71 66.13 66.64
  A 0.84 0.83 82.6 0 1 65.22 67.83
  C 62.13 67.23 59.16 63.99 57.34 61.61
  Q 48.19 49.72 41.19 33.75
  C 39.86 30.71 38.74 26.81 39.77 23.54
  A 0.51 0.50 28.2 0 1 40.57 23.30
  Z"
/>
</svg>
